<svg width="9" height="13" viewBox="0 0 9 13" fill="none" xmlns="http://www.w3.org/2000/svg">
  <path d="M0.888705 7.00726L6.67387 12.7923C6.80767 12.9262 6.98629 13 7.17674 13C7.3672 13 7.54581 12.9262 7.67962 12.7923L8.10565 12.3664C8.38288 12.0888 8.38288 11.6378 8.10565 11.3606L3.24771 6.5027L8.11105 1.63936C8.24485 1.50545 8.31873 1.32694 8.31873 1.13659C8.31873 0.946033 8.24485 0.767522 8.11105 0.633507L7.68501 0.207681C7.5511 0.0737714 7.37259 -8.27141e-08 7.18213 -9.93641e-08C6.99168 -1.16014e-07 6.81306 0.0737713 6.67926 0.207681L0.888705 5.99802C0.754585 6.13236 0.680919 6.31171 0.681342 6.50238C0.680919 6.69378 0.754585 6.87303 0.888705 7.00726Z" fill="#00AEE8"/>
</svg>
