<svg width="24" height="24" viewBox="0 0 24 24" fill="none" xmlns="http://www.w3.org/2000/svg">
  <g clip-path="url(#clip0)">
    <path d="M3.51564 3.51563C5.77693 1.31949 8.81155 0.101308 11.9637 0.124344C15.1158 0.147381 18.1323 1.40979 20.3613 3.63874C22.5902 5.8677 23.8526 8.88419 23.8757 12.0363C23.8987 15.1885 22.6805 18.2231 20.4844 20.4844C18.951 22.0159 17.032 23.1043 14.9306 23.6343C12.8291 24.1642 10.6235 24.116 8.5472 23.4947C8.25079 23.4043 8.00226 23.2002 7.85598 22.927C7.70969 22.6538 7.67757 22.3338 7.76663 22.037C7.85569 21.7402 8.05869 21.4907 8.33121 21.3432C8.60373 21.1957 8.92358 21.1621 9.22079 21.2498C10.1225 21.52 11.0587 21.6569 12 21.6563C17.3245 21.6563 21.6562 17.3245 21.6562 12C21.6562 6.67547 17.3245 2.34375 12 2.34375C6.67548 2.34375 2.34376 6.67547 2.34376 12C2.34039 13.8822 2.88967 15.724 3.92345 17.2969C4.08959 17.5566 4.1467 17.8713 4.0824 18.1728C4.0181 18.4743 3.83757 18.7384 3.57994 18.9077C3.32231 19.077 3.00832 19.138 2.70603 19.0774C2.40375 19.0168 2.13751 18.8396 1.96501 18.5841C0.452297 16.2768 -0.219379 13.5188 0.0630417 10.7743C0.345463 8.02987 1.56474 5.46648 3.51564 3.51563Z" fill="#00AEE8"/>
    <path d="M13.1719 6.28101V13.7341C13.1719 14.0449 13.0484 14.343 12.8286 14.5628C12.6089 14.7825 12.3108 14.906 12 14.906C11.6892 14.906 11.3911 14.7825 11.1714 14.5628C10.9516 14.343 10.8281 14.0449 10.8281 13.7341V6.28101C10.8281 5.97021 10.9516 5.67213 11.1714 5.45236C11.3911 5.2326 11.6892 5.10913 12 5.10913C12.3108 5.10913 12.6089 5.2326 12.8286 5.45236C13.0484 5.67213 13.1719 5.97021 13.1719 6.28101Z" fill="#00AEE8"/>
    <path d="M12 18.8904C12.2318 18.8904 12.4583 18.8217 12.6511 18.6929C12.8438 18.5641 12.994 18.3811 13.0827 18.167C13.1714 17.9528 13.1946 17.7172 13.1494 17.4899C13.1041 17.2626 12.9925 17.0538 12.8286 16.8899C12.6647 16.726 12.4559 16.6144 12.2286 16.5691C12.0013 16.5239 11.7657 16.5471 11.5515 16.6358C11.3374 16.7245 11.1544 16.8747 11.0256 17.0674C10.8968 17.2602 10.8281 17.4867 10.8281 17.7185C10.8281 18.0293 10.9516 18.3274 11.1714 18.5471C11.3911 18.7669 11.6892 18.8904 12 18.8904Z" fill="#00AEE8"/>
  </g>
  <defs>
    <clipPath id="clip0">
      <rect width="24" height="24" fill="white" transform="matrix(-1 0 0 1 24 0)"/>
    </clipPath>
  </defs>
</svg>
