<svg width="20" height="20" viewBox="0 0 20 20" fill="none" xmlns="http://www.w3.org/2000/svg">
  <g clip-path="url(#clip0)">
    <path d="M18.9178 17.4206V17.4122H4.33727C3.14012 17.4122 2.16949 16.4449 2.16445 15.2478V1.49775C2.16445 0.900449 1.67957 0.415527 1.08223 0.415527C0.484883 0.415527 0 0.90041 0 1.49775V15.2478C0 17.6429 1.94211 19.585 4.33727 19.585H18.9178C19.5151 19.585 20 19.1001 20 18.5028C20 17.9054 19.5151 17.4206 18.9178 17.4206Z" fill="#00AEE8"/>
    <path d="M17.6089 4.98747C17.129 4.62841 16.4495 4.72572 16.0905 5.2056L13.5737 8.81298L10.0166 6.13681C9.53928 5.77775 8.86057 5.87337 8.50151 6.35075C8.50065 6.35243 8.49983 6.35325 8.49815 6.35493L5.40253 10.8012C5.04096 11.2769 5.13409 11.9564 5.60975 12.318C5.79178 12.4564 6.01327 12.5336 6.24147 12.5378V12.563C6.57284 12.5538 6.88241 12.3927 7.08042 12.1267L9.59721 8.51934L13.1542 11.1955C13.6316 11.5546 14.3103 11.459 14.6694 10.9816C14.6702 10.9799 14.671 10.9791 14.6727 10.9774L17.8271 6.50591C18.1861 6.02607 18.0888 5.34654 17.6089 4.98747Z" fill="#00AEE8"/>
  </g>
  <defs>
    <clipPath id="clip0">
      <rect width="20" height="20" fill="white"/>
    </clipPath>
  </defs>
</svg>
