<svg width="20" height="20" viewBox="0 0 20 20" fill="none" xmlns="http://www.w3.org/2000/svg">
  <g clip-path="url(#clip0)">
    <path d="M18.9178 17.4205V17.4121H4.33727C3.14012 17.4121 2.16949 16.4449 2.16445 15.2477V1.49772C2.16445 0.900419 1.67957 0.415497 1.08223 0.415497C0.484883 0.415497 0 0.90038 0 1.49772V15.2477C0 17.6428 1.94211 19.585 4.33727 19.585H18.9178C19.5151 19.585 20 19.1001 20 18.5028C20 17.9054 19.5151 17.4205 18.9178 17.4205Z" fill="#9AB0B8"/>
    <path d="M17.609 4.98749C17.1291 4.62843 16.4496 4.72573 16.0906 5.20561L13.5738 8.81299L10.0167 6.13682C9.53941 5.77776 8.8607 5.87339 8.50163 6.35077C8.50077 6.35245 8.49995 6.35327 8.49827 6.35495L5.40265 10.8012C5.04109 11.2769 5.13421 11.9564 5.60987 12.318C5.79191 12.4565 6.01339 12.5336 6.24159 12.5378V12.563C6.57296 12.5538 6.88253 12.3927 7.08054 12.1267L9.59734 8.51936L13.1544 11.1955C13.6317 11.5546 14.3104 11.459 14.6695 10.9816C14.6703 10.9799 14.6712 10.9791 14.6728 10.9774L17.8272 6.50592C18.1862 6.02608 18.0889 5.34655 17.609 4.98749Z" fill="#9AB0B8"/>
  </g>
  <defs>
    <clipPath id="clip0">
      <rect width="20" height="20" fill="white"/>
    </clipPath>
  </defs>
</svg>
