<svg width="21" height="21" viewBox="0 0 21 21" fill="none" xmlns="http://www.w3.org/2000/svg">
  <path d="M10.5 0C4.69662 0 0 4.69617 0 10.5C0 16.3034 4.69617 21 10.5 21C16.3034 21 21 16.3038 21 10.5C21 4.69658 16.3038 0 10.5 0ZM10.5 19.3594C5.60339 19.3594 1.64062 15.397 1.64062 10.5C1.64062 5.60335 5.60302 1.64062 10.5 1.64062C15.3966 1.64062 19.3594 5.60302 19.3594 10.5C19.3594 15.3967 15.397 19.3594 10.5 19.3594Z" fill="#9AB0B8"/>
  <path d="M14.0922 12.9324L11.6599 10.5001L14.0922 8.06776C14.4125 7.74743 14.4125 7.22805 14.0922 6.90767C13.7718 6.5873 13.2524 6.58734 12.9321 6.90767L10.4998 9.33998L8.06743 6.90767C7.74714 6.5873 7.22767 6.5873 6.90734 6.90767C6.58701 7.22805 6.58701 7.74743 6.90738 8.06776L9.33969 10.5001L6.90738 12.9324C6.58701 13.2527 6.58697 13.7721 6.90734 14.0925C7.2278 14.4129 7.74718 14.4128 8.06743 14.0925L10.4998 11.6602L12.9321 14.0925C13.2524 14.4128 13.7718 14.4128 14.0922 14.0925C14.4126 13.7721 14.4125 13.2527 14.0922 12.9324Z" fill="#9AB0B8"/>
</svg>
