<svg width="21" height="21" viewBox="0 0 21 21" fill="none" xmlns="http://www.w3.org/2000/svg">
  <path d="M10.5 0C4.69662 0 0 4.69617 0 10.5C0 16.3034 4.69617 21 10.5 21C16.3034 21 21 16.3038 21 10.5C21 4.69658 16.3038 0 10.5 0ZM10.5 19.3594C5.60339 19.3594 1.64062 15.397 1.64062 10.5C1.64062 5.60335 5.60302 1.64062 10.5 1.64062C15.3966 1.64062 19.3594 5.60302 19.3594 10.5C19.3594 15.3967 15.397 19.3594 10.5 19.3594Z" fill="#00AEE8"/>
  <path d="M14.0921 12.9323L11.6598 10.5L14.0921 8.06772C14.4124 7.74739 14.4124 7.22801 14.0921 6.90764C13.7717 6.58727 13.2523 6.58731 12.932 6.90764L10.4997 9.33995L8.06734 6.90764C7.74705 6.58727 7.22758 6.58727 6.90725 6.90764C6.58692 7.22801 6.58692 7.74739 6.90729 8.06772L9.3396 10.5L6.90729 12.9323C6.58692 13.2527 6.58688 13.7721 6.90725 14.0924C7.22771 14.4128 7.74709 14.4127 8.06734 14.0924L10.4997 11.6601L12.932 14.0924C13.2523 14.4128 13.7717 14.4128 14.0921 14.0924C14.4125 13.7721 14.4124 13.2527 14.0921 12.9323Z" fill="#00AEE8"/>
</svg>
