<svg width="31" height="31" viewBox="0 0 31 31" fill="none" xmlns="http://www.w3.org/2000/svg">
  <path d="M25.1785 12.5938C25.1782 12.342 25.0889 12.094 24.9037 11.9088L17.1537 4.15878C16.9685 3.97296 16.7206 3.88281 16.4688 3.88281V3.875H10.6562C7.98559 3.875 5.8125 6.04809 5.8125 8.71875V22.2812C5.8125 24.9519 7.98559 27.125 10.6562 27.125H20.3438C23.0144 27.125 25.1875 24.9519 25.1875 22.2812V12.5938H25.1785ZM17.4375 7.18237L21.8801 11.625H20.3438C18.7411 11.625 17.4375 10.3214 17.4375 8.71875V7.18237ZM20.3438 25.1875H10.6562C9.05363 25.1875 7.75 23.8839 7.75 22.2812V8.71875C7.75 7.11613 9.05363 5.8125 10.6562 5.8125H15.5V8.71875C15.5 11.3894 17.6731 13.5625 20.3438 13.5625H23.25V22.2812C23.25 23.8839 21.9464 25.1875 20.3438 25.1875ZM20.3438 21.3125C20.3438 21.848 19.91 22.2812 19.375 22.2812H11.625C11.09 22.2812 10.6562 21.848 10.6562 21.3125C10.6562 20.777 11.09 20.3438 11.625 20.3438H19.375C19.91 20.3438 20.3438 20.777 20.3438 21.3125ZM20.3438 17.4375C20.3438 17.973 19.91 18.4062 19.375 18.4062H11.625C11.09 18.4062 10.6562 17.973 10.6562 17.4375C10.6562 16.902 11.09 16.4688 11.625 16.4688H19.375C19.91 16.4688 20.3438 16.902 20.3438 17.4375ZM10.6562 13.5625C10.6562 13.027 11.09 12.5938 11.625 12.5938H13.5625C14.0975 12.5938 14.5312 13.027 14.5312 13.5625C14.5312 14.098 14.0975 14.5312 13.5625 14.5312H11.625C11.09 14.5312 10.6562 14.098 10.6562 13.5625Z" fill="#9AB0B8"/>
</svg>
