<svg width="23" height="23" viewBox="0 0 23 23" fill="none" xmlns="http://www.w3.org/2000/svg">
  <path d="M2.87459 5.74972H13.4163C13.4163 6.25805 13.6182 6.74556 13.9776 7.105C14.3371 7.46445 14.8246 7.66638 15.3329 7.66638H17.2496C17.7579 7.66638 18.2454 7.46445 18.6049 7.105C18.9643 6.74556 19.1663 6.25805 19.1663 5.74972H20.1246C20.3788 5.74972 20.6225 5.64875 20.8022 5.46903C20.982 5.2893 21.0829 5.04555 21.0829 4.79138C21.0829 4.53722 20.982 4.29346 20.8022 4.11374C20.6225 3.93402 20.3788 3.83305 20.1246 3.83305H19.1663C19.1663 3.32472 18.9643 2.83721 18.6049 2.47776C18.2454 2.11832 17.7579 1.91638 17.2496 1.91638H15.3329C14.8246 1.91638 14.3371 2.11832 13.9776 2.47776C13.6182 2.83721 13.4163 3.32472 13.4163 3.83305H2.87459C2.62043 3.83305 2.37667 3.93402 2.19695 4.11374C2.01723 4.29346 1.91626 4.53722 1.91626 4.79138C1.91626 5.04555 2.01723 5.2893 2.19695 5.46903C2.37667 5.64875 2.62043 5.74972 2.87459 5.74972ZM15.3329 3.83305H17.2496V4.79138V5.74972H15.3329V3.83305ZM20.1246 10.5414H11.4996C11.4996 10.0331 11.2977 9.54554 10.9382 9.18609C10.5788 8.82665 10.0913 8.62472 9.58293 8.62472H7.66626C7.15793 8.62472 6.67042 8.82665 6.31097 9.18609C5.95153 9.54554 5.74959 10.0331 5.74959 10.5414H2.87459C2.62043 10.5414 2.37667 10.6423 2.19695 10.8221C2.01723 11.0018 1.91626 11.2456 1.91626 11.4997C1.91626 11.7539 2.01723 11.9976 2.19695 12.1774C2.37667 12.3571 2.62043 12.458 2.87459 12.458H5.74959C5.74959 12.9664 5.95153 13.4539 6.31097 13.8133C6.67042 14.1728 7.15793 14.3747 7.66626 14.3747H9.58293C10.0913 14.3747 10.5788 14.1728 10.9382 13.8133C11.2977 13.4539 11.4996 12.9664 11.4996 12.458H20.1246C20.3788 12.458 20.6225 12.3571 20.8022 12.1774C20.982 11.9976 21.0829 11.7539 21.0829 11.4997C21.0829 11.2456 20.982 11.0018 20.8022 10.8221C20.6225 10.6423 20.3788 10.5414 20.1246 10.5414ZM7.66626 12.458V10.5414H9.58293V11.4997V12.458H7.66626ZM20.1246 17.2497H17.2496C17.2496 16.7414 17.0477 16.2539 16.6882 15.8944C16.3288 15.535 15.8413 15.333 15.3329 15.333H13.4163C12.9079 15.333 12.4204 15.535 12.061 15.8944C11.7015 16.2539 11.4996 16.7414 11.4996 17.2497H2.87459C2.62043 17.2497 2.37667 17.3507 2.19695 17.5304C2.01723 17.7101 1.91626 17.9539 1.91626 18.208C1.91626 18.4622 2.01723 18.706 2.19695 18.8857C2.37667 19.0654 2.62043 19.1664 2.87459 19.1664H11.4996C11.4996 19.6747 11.7015 20.1622 12.061 20.5217C12.4204 20.8811 12.9079 21.083 13.4163 21.083H15.3329C15.8413 21.083 16.3288 20.8811 16.6882 20.5217C17.0477 20.1622 17.2496 19.6747 17.2496 19.1664H20.1246C20.3788 19.1664 20.6225 19.0654 20.8022 18.8857C20.982 18.706 21.0829 18.4622 21.0829 18.208C21.0829 17.9539 20.982 17.7101 20.8022 17.5304C20.6225 17.3507 20.3788 17.2497 20.1246 17.2497ZM13.4163 19.1664V17.2497H15.3329V18.208V19.1664H13.4163Z" fill="#00AEE8"/>
</svg>
