<svg width="23" height="23" viewBox="0 0 23 23" fill="none" xmlns="http://www.w3.org/2000/svg">
  <path d="M2.87468 5.74968H13.4164C13.4164 6.25802 13.6183 6.74553 13.9777 7.10497C14.3372 7.46442 14.8247 7.66635 15.333 7.66635H17.2497C17.758 7.66635 18.2455 7.46442 18.605 7.10497C18.9644 6.74553 19.1664 6.25802 19.1664 5.74968H20.1247C20.3789 5.74968 20.6226 5.64872 20.8023 5.469C20.9821 5.28927 21.083 5.04552 21.083 4.79135C21.083 4.53719 20.9821 4.29343 20.8023 4.11371C20.6226 3.93399 20.3789 3.83302 20.1247 3.83302H19.1664C19.1664 3.32469 18.9644 2.83717 18.605 2.47773C18.2455 2.11829 17.758 1.91635 17.2497 1.91635H15.333C14.8247 1.91635 14.3372 2.11829 13.9777 2.47773C13.6183 2.83717 13.4164 3.32469 13.4164 3.83302H2.87468C2.62052 3.83302 2.37676 3.93399 2.19704 4.11371C2.01732 4.29343 1.91635 4.53719 1.91635 4.79135C1.91635 5.04552 2.01732 5.28927 2.19704 5.469C2.37676 5.64872 2.62052 5.74968 2.87468 5.74968ZM15.333 3.83302H17.2497V4.79135V5.74968H15.333V3.83302ZM20.1247 10.5414H11.4997C11.4997 10.033 11.2978 9.54551 10.9383 9.18606C10.5789 8.82662 10.0913 8.62468 9.58302 8.62468H7.66635C7.15802 8.62468 6.67051 8.82662 6.31106 9.18606C5.95162 9.54551 5.74968 10.033 5.74968 10.5414H2.87468C2.62052 10.5414 2.37676 10.6423 2.19704 10.822C2.01732 11.0018 1.91635 11.2455 1.91635 11.4997C1.91635 11.7539 2.01732 11.9976 2.19704 12.1773C2.37676 12.3571 2.62052 12.458 2.87468 12.458H5.74968C5.74968 12.9663 5.95162 13.4539 6.31106 13.8133C6.67051 14.1728 7.15802 14.3747 7.66635 14.3747H9.58302C10.0913 14.3747 10.5789 14.1728 10.9383 13.8133C11.2978 13.4539 11.4997 12.9663 11.4997 12.458H20.1247C20.3789 12.458 20.6226 12.3571 20.8023 12.1773C20.9821 11.9976 21.083 11.7539 21.083 11.4997C21.083 11.2455 20.9821 11.0018 20.8023 10.822C20.6226 10.6423 20.3789 10.5414 20.1247 10.5414ZM7.66635 12.458V10.5414H9.58302V11.4997V12.458H7.66635ZM20.1247 17.2497H17.2497C17.2497 16.7414 17.0478 16.2538 16.6883 15.8944C16.3289 15.535 15.8414 15.333 15.333 15.333H13.4164C12.908 15.333 12.4205 15.535 12.0611 15.8944C11.7016 16.2538 11.4997 16.7414 11.4997 17.2497H2.87468C2.62052 17.2497 2.37676 17.3507 2.19704 17.5304C2.01732 17.7101 1.91635 17.9539 1.91635 18.208C1.91635 18.4622 2.01732 18.7059 2.19704 18.8857C2.37676 19.0654 2.62052 19.1664 2.87468 19.1664H11.4997C11.4997 19.6747 11.7016 20.1622 12.0611 20.5216C12.4205 20.8811 12.908 21.083 13.4164 21.083H15.333C15.8414 21.083 16.3289 20.8811 16.6883 20.5216C17.0478 20.1622 17.2497 19.6747 17.2497 19.1664H20.1247C20.3789 19.1664 20.6226 19.0654 20.8023 18.8857C20.9821 18.7059 21.083 18.4622 21.083 18.208C21.083 17.9539 20.9821 17.7101 20.8023 17.5304C20.6226 17.3507 20.3789 17.2497 20.1247 17.2497ZM13.4164 19.1664V17.2497H15.333V18.208V19.1664H13.4164Z" fill="#9AB0B8"/>
</svg>
