<svg width="24" height="24" viewBox="0 0 24 24" fill="none" xmlns="http://www.w3.org/2000/svg">
  <g clip-path="url(#clip0)">
    <path d="M20.4864 3.51408C15.7989 -1.16892 8.20136 -1.16892 3.51538 3.51408C-1.17212 8.19708 -1.17212 15.7991 3.51538 20.4851C5.85411 22.8238 8.91906 23.9944 11.9847 23.9981H12.0181C15.084 23.9936 18.1485 22.8223 20.4864 20.4851C25.1709 15.8024 25.1709 8.19708 20.4864 3.51408ZM11.4951 21.6536C10.192 21.6536 9.12854 20.6011 9.12854 19.3076C9.12854 17.9795 10.1685 16.9396 11.4951 16.9396C12.7886 16.9396 13.841 18.0013 13.841 19.3076C13.8411 20.5791 12.7668 21.6536 11.4951 21.6536ZM13.1442 13.4281V14.7282C13.1442 15.3609 12.8969 15.6085 12.2624 15.6085H10.5662C9.93193 15.6085 9.68761 15.3612 9.68761 14.7282V11.8226C9.68761 11.0881 10.4394 10.8689 11.1034 10.6762C11.2663 10.6276 11.4339 10.5789 11.5968 10.5243C12.4566 10.2144 12.9876 9.82893 12.9876 8.86891C12.9876 8.5572 12.9876 7.61123 11.4495 7.61123C10.5005 7.61123 9.63896 7.9761 9.12526 8.19233C8.8338 8.31287 8.69001 8.374 8.54264 8.374C8.24668 8.374 7.96477 8.13595 7.92244 7.89162L7.33204 6.34753C7.24434 6.16884 7.24433 6.02803 7.24433 5.91526C7.24433 4.77808 10.7872 4.15014 11.9616 4.15014C14.9201 4.15014 16.9075 6.05612 16.9075 8.8925C16.9093 11.9589 14.6054 12.9206 13.1442 13.4281Z" fill="#00AEE8"/>
  </g>
  <defs>
    <clipPath id="clip0">
      <rect width="24" height="24" fill="white"/>
    </clipPath>
  </defs>
</svg>
