<svg width="26" height="26" viewBox="0 0 26 26" fill="none" xmlns="http://www.w3.org/2000/svg">
  <g clip-path="url(#clip0)">
    <path d="M25.9748 7.64407C25.9138 6.26259 25.6904 5.31284 25.3704 4.48986C25.0403 3.61629 24.5324 2.83419 23.8669 2.18402C23.2168 1.52374 22.4295 1.01067 21.566 0.685681C20.7383 0.365657 19.7935 0.142255 18.412 0.0813452C17.0202 0.015277 16.5784 0 13.0484 0C9.51844 0 9.0766 0.015277 7.68996 0.0761868C6.30848 0.137096 5.35873 0.360697 4.53595 0.680522C3.66219 1.01067 2.88008 1.51858 2.22992 2.18402C1.56963 2.83419 1.05676 3.62145 0.731578 4.4849C0.411555 5.31284 0.188153 6.25743 0.127244 7.63891C0.0611754 9.03071 0.0458984 9.47255 0.0458984 13.0025C0.0458984 16.5325 0.0611754 16.9744 0.122085 18.361C0.182995 19.7425 0.406595 20.6922 0.726618 21.5152C1.05676 22.3888 1.56963 23.1709 2.22992 23.8211C2.88008 24.4813 3.66734 24.9944 4.53079 25.3194C5.35873 25.6394 6.30332 25.8628 7.685 25.9237C9.07144 25.9848 9.51348 25.9999 13.0435 25.9999C16.5734 25.9999 17.0153 25.9848 18.4019 25.9237C19.7834 25.8628 20.7332 25.6394 21.5559 25.3194C23.3033 24.6438 24.6847 23.2624 25.3603 21.5152C25.6801 20.6873 25.9037 19.7425 25.9646 18.361C26.0255 16.9744 26.0408 16.5325 26.0408 13.0025C26.0408 9.47255 26.0357 9.03071 25.9748 7.64407ZM23.6334 18.2594C23.5775 19.5292 23.3642 20.2149 23.1864 20.672C22.7495 21.8047 21.8506 22.7037 20.7179 23.1405C20.2608 23.3183 19.5701 23.5316 18.3053 23.5873C16.9339 23.6485 16.5227 23.6635 13.0536 23.6635C9.58451 23.6635 9.16806 23.6485 7.80166 23.5873C6.53188 23.5316 5.8462 23.3183 5.38908 23.1405C4.82542 22.9322 4.31235 22.6021 3.8959 22.1703C3.46418 21.7487 3.13404 21.2408 2.92571 20.6772C2.74795 20.22 2.53466 19.5292 2.47891 18.2646C2.4178 16.8932 2.40272 16.4817 2.40272 13.0127C2.40272 9.54358 2.4178 9.12713 2.47891 7.76093C2.53466 6.49115 2.74795 5.80547 2.92571 5.34835C3.13404 4.78449 3.46418 4.27162 3.90106 3.85497C4.32247 3.42325 4.83038 3.0931 5.39424 2.88498C5.85136 2.70721 6.5422 2.49393 7.80682 2.43798C9.17818 2.37707 9.58967 2.36179 13.0585 2.36179C16.5328 2.36179 16.9441 2.37707 18.3105 2.43798C19.5802 2.49393 20.2659 2.70721 20.723 2.88498C21.2867 3.0931 21.7998 3.42325 22.2162 3.85497C22.6479 4.27658 22.9781 4.78449 23.1864 5.34835C23.3642 5.80547 23.5775 6.49611 23.6334 7.76093C23.6943 9.13229 23.7096 9.54358 23.7096 13.0127C23.7096 16.4817 23.6943 16.8881 23.6334 18.2594Z" fill="white"/>
    <path d="M13.0483 6.32324C9.36098 6.32324 6.36926 9.31476 6.36926 13.0023C6.36926 16.6898 9.36098 19.6813 13.0483 19.6813C16.7358 19.6813 19.7273 16.6898 19.7273 13.0023C19.7273 9.31476 16.7358 6.32324 13.0483 6.32324ZM13.0483 17.3348C10.6562 17.3348 8.71578 15.3946 8.71578 13.0023C8.71578 10.6099 10.6562 8.66975 13.0483 8.66975C15.4406 8.66975 17.3808 10.6099 17.3808 13.0023C17.3808 15.3946 15.4406 17.3348 13.0483 17.3348Z" fill="white"/>
    <path d="M21.5513 6.06023C21.5513 6.9213 20.8531 7.61948 19.9918 7.61948C19.1307 7.61948 18.4326 6.9213 18.4326 6.06023C18.4326 5.19896 19.1307 4.50098 19.9918 4.50098C20.8531 4.50098 21.5513 5.19896 21.5513 6.06023Z" fill="white"/>
  </g>
  <defs>
    <clipPath id="clip0">
      <rect width="26" height="26" fill="white"/>
    </clipPath>
  </defs>
</svg>
