<svg width="26" height="26" viewBox="0 0 26 26" fill="none" xmlns="http://www.w3.org/2000/svg">
  <g clip-path="url(#clip0)">
    <path d="M25.9748 7.64407C25.9139 6.26259 25.6905 5.31284 25.3704 4.48986C25.0403 3.61629 24.5324 2.83419 23.8669 2.18402C23.2168 1.52374 22.4295 1.01067 21.5661 0.685681C20.7383 0.365657 19.7935 0.142255 18.4121 0.0813452C17.0203 0.015277 16.5784 0 13.0484 0C9.51845 0 9.07661 0.015277 7.68997 0.0761868C6.3085 0.137096 5.35874 0.360697 4.53597 0.680522C3.6622 1.01067 2.8801 1.51858 2.22993 2.18402C1.56965 2.83419 1.05678 3.62145 0.731594 4.4849C0.41157 5.31284 0.188168 6.25743 0.127259 7.63891C0.0611907 9.03071 0.0459137 9.47255 0.0459137 13.0025C0.0459137 16.5325 0.0611907 16.9744 0.1221 18.361C0.18301 19.7425 0.40661 20.6922 0.726633 21.5152C1.05678 22.3888 1.56965 23.1709 2.22993 23.8211C2.8801 24.4813 3.66736 24.9944 4.53081 25.3194C5.35874 25.6394 6.30334 25.8628 7.68501 25.9237C9.07145 25.9848 9.51349 25.9999 13.0435 25.9999C16.5735 25.9999 17.0153 25.9848 18.4019 25.9237C19.7834 25.8628 20.7332 25.6394 21.5559 25.3194C23.3033 24.6438 24.6848 23.2624 25.3603 21.5152C25.6801 20.6873 25.9037 19.7425 25.9647 18.361C26.0256 16.9744 26.0408 16.5325 26.0408 13.0025C26.0408 9.47255 26.0357 9.03071 25.9748 7.64407ZM23.6334 18.2594C23.5775 19.5292 23.3642 20.2149 23.1864 20.672C22.7495 21.8047 21.8506 22.7037 20.7179 23.1405C20.2608 23.3183 19.5701 23.5316 18.3053 23.5873C16.934 23.6485 16.5227 23.6635 13.0536 23.6635C9.58452 23.6635 9.16808 23.6485 7.80168 23.5873C6.5319 23.5316 5.84622 23.3183 5.3891 23.1405C4.82544 22.9322 4.31237 22.6021 3.89592 22.1703C3.46419 21.7487 3.13405 21.2408 2.92573 20.6772C2.74796 20.22 2.53468 19.5292 2.47893 18.2646C2.41782 16.8932 2.40274 16.4817 2.40274 13.0127C2.40274 9.54358 2.41782 9.12713 2.47893 7.76093C2.53468 6.49115 2.74796 5.80547 2.92573 5.34835C3.13405 4.78449 3.46419 4.27162 3.90108 3.85497C4.32248 3.42325 4.8304 3.0931 5.39426 2.88498C5.85138 2.70721 6.54221 2.49393 7.80683 2.43798C9.17819 2.37707 9.58968 2.36179 13.0586 2.36179C16.5328 2.36179 16.9441 2.37707 18.3105 2.43798C19.5803 2.49393 20.2659 2.70721 20.7231 2.88498C21.2867 3.0931 21.7998 3.42325 22.2162 3.85497C22.648 4.27658 22.9781 4.78449 23.1864 5.34835C23.3642 5.80547 23.5775 6.49611 23.6334 7.76093C23.6943 9.13229 23.7096 9.54358 23.7096 13.0127C23.7096 16.4817 23.6943 16.8881 23.6334 18.2594Z" fill="#00AEE8"/>
    <path d="M13.0483 6.32324C9.361 6.32324 6.36928 9.31476 6.36928 13.0023C6.36928 16.6898 9.361 19.6813 13.0483 19.6813C16.7358 19.6813 19.7274 16.6898 19.7274 13.0023C19.7274 9.31476 16.7358 6.32324 13.0483 6.32324ZM13.0483 17.3348C10.6562 17.3348 8.71579 15.3946 8.71579 13.0023C8.71579 10.6099 10.6562 8.66975 13.0483 8.66975C15.4407 8.66975 17.3808 10.6099 17.3808 13.0023C17.3808 15.3946 15.4407 17.3348 13.0483 17.3348Z" fill="#00AEE8"/>
    <path d="M21.5513 6.06023C21.5513 6.9213 20.8531 7.61948 19.9918 7.61948C19.1308 7.61948 18.4326 6.9213 18.4326 6.06023C18.4326 5.19896 19.1308 4.50098 19.9918 4.50098C20.8531 4.50098 21.5513 5.19896 21.5513 6.06023Z" fill="#00AEE8"/>
  </g>
  <defs>
    <clipPath id="clip0">
      <rect width="26" height="26" fill="white"/>
    </clipPath>
  </defs>
</svg>
