<svg width="210" height="33" viewBox="0 0 210 33" fill="none" xmlns="http://www.w3.org/2000/svg">
  <path d="M28.9083 6.35498C29.6749 7.35944 30.3239 8.4507 30.8421 9.60685L16.1419 20.589L9.99829 16.686V11.9905L16.1419 15.8935L28.9083 6.35498Z" fill="#00AEE8"/>
  <path d="M3.72827 16.3545C3.72827 16.1438 3.73334 15.9345 3.74348 15.7264L0.0202772 15.5415C0.00760464 15.8112 4.49931e-06 16.0835 4.49931e-06 16.3583C-0.00157962 18.5055 0.415154 20.6318 1.22631 22.6153C2.03746 24.5989 3.22706 26.4006 4.72687 27.9171L7.36783 25.2419C6.21333 24.0766 5.29746 22.6915 4.67286 21.1663C4.04826 19.6411 3.72725 18.0058 3.72827 16.3545Z" fill="#00AEE8"/>
  <path d="M16.1385 3.77735C16.3463 3.77735 16.5528 3.78506 16.7581 3.79533L16.9444 0.0207408C16.6775 0.00789774 16.4088 0.00147697 16.1385 0.00147697C14.0188 -0.00114271 11.9196 0.42059 9.96126 1.24246C8.00291 2.06433 6.22405 3.27015 4.72681 4.79068L7.36777 7.46718C8.51766 6.29676 9.8845 5.36823 11.3897 4.735C12.8949 4.10177 14.5087 3.77631 16.1385 3.77735Z" fill="#00AEE8"/>
  <path d="M16.1385 28.9317C15.9307 28.9317 15.7241 28.9317 15.5176 28.915L15.3313 32.6883C15.5991 32.702 15.8682 32.7089 16.1385 32.7089C18.2573 32.7111 20.3555 32.2891 22.3128 31.467C24.2701 30.6449 26.0478 29.4389 27.5439 27.9184L24.908 25.2432C23.7579 26.413 22.3912 27.341 20.8863 27.974C19.3814 28.607 17.7679 28.9325 16.1385 28.9317Z" fill="#00AEE8"/>
  <path d="M23.1339 5.97207L26.2716 3.6282C23.4037 1.27465 19.8238 -0.0065332 16.1335 2.50536e-05V3.77718C18.6324 3.77404 21.0733 4.53938 23.1339 5.97207Z" fill="#00AEE8"/>
  <path d="M32.2759 16.3546C32.2779 15.372 32.1931 14.3911 32.0224 13.4238L28.5489 16.0181C28.5489 16.1299 28.5489 16.2416 28.5489 16.3546C28.5498 18.1119 28.1863 19.8498 27.4821 21.4556C26.7778 23.0614 25.7484 24.4993 24.4607 25.6761L26.9661 28.4824C28.6402 26.9507 29.978 25.0796 30.8927 22.9904C31.8075 20.9011 32.2787 18.6403 32.2759 16.3546Z" fill="#00AEE8"/>
  <path d="M16.1386 28.9318C14.4045 28.9324 12.6896 28.5639 11.1049 27.8502C9.52028 27.1365 8.10119 26.0934 6.93956 24.7886L4.17188 27.3264C5.68303 29.0233 7.52923 30.3793 9.59076 31.3066C11.6523 32.2338 13.8831 32.7116 16.1386 32.7089V28.9318Z" fill="#00AEE8"/>
  <path d="M7.81645 7.03278L5.31235 4.22656C3.63776 5.75794 2.29948 7.62894 1.3843 9.71822C0.469132 11.8075 -0.00249507 14.0684 9.92661e-06 16.3543H3.72828C3.72751 14.5971 4.09104 12.8592 4.79529 11.2534C5.49955 9.64763 6.52883 8.20969 7.81645 7.03278Z" fill="#00AEE8"/>
  <path d="M93.1298 9.35295L97.7473 5.94434H82.2935V26.4271H97.7473V23.0185H86.7031V17.7718H96.1243V14.3632H86.7031V9.35295H93.1298Z" fill="#00AEE8"/>
  <path d="M71.8952 13.9237H66.53V9.35159H75.0927L79.7074 5.93262H62.123V26.4154H71.3277C76.4883 26.4154 79.45 24.0718 79.45 19.9846C79.45 16.0745 76.7674 13.9237 71.8952 13.9237ZM71.1292 23.0057H66.53V17.3302H71.1292C73.9204 17.3302 75.2291 18.2813 75.2291 20.168C75.2291 22.0546 73.8366 23.0057 71.1292 23.0057Z" fill="#00AEE8"/>
  <path d="M109.107 5.94141H100.695V26.4241H105.104V20.6217H109.107C114.474 20.6217 117.794 17.792 117.794 13.2706C117.794 8.74936 114.474 5.94141 109.107 5.94141ZM109.014 17.2105H105.104V9.35262H109.014C111.837 9.35262 113.395 10.7488 113.395 13.2831C113.395 15.8174 111.837 17.2105 109.014 17.2105Z" fill="#00AEE8"/>
  <path d="M55.5064 21.5904C54.3674 22.2084 53.0913 22.5284 51.7962 22.5208C47.9198 22.5208 45.1077 19.7479 45.1077 15.9296C45.1077 12.1112 47.9198 9.33233 51.7962 9.33233C53.1941 9.30854 54.563 9.73327 55.7029 10.5445L58.7871 8.26864L58.5785 8.12015C56.7794 6.53523 54.3755 5.6958 51.6239 5.6958C48.6394 5.6958 45.9332 6.7019 44.001 8.53229C43.024 9.47473 42.2514 10.6088 41.7311 11.8638C41.2109 13.1188 40.9542 14.4677 40.9773 15.8265C40.9566 17.1991 41.2121 18.5618 41.7285 19.8333C42.2449 21.1048 43.0116 22.2589 43.9829 23.2269C45.9241 25.13 48.6243 26.1785 51.5876 26.1785C54.6839 26.1785 57.3902 25.0966 59.2226 23.1269L56.4619 21.0662L55.5064 21.5904Z" fill="#00AEE8"/>
  <path d="M135.277 13.9237H129.914V9.35159H141.439V5.93262H125.504V26.4154H134.697C139.857 26.4154 142.819 24.0718 142.819 19.9846C142.831 16.0745 140.149 13.9237 135.277 13.9237ZM134.511 23.0057H129.914V17.3302H134.511C137.302 17.3302 138.61 18.2813 138.61 20.168C138.61 22.0546 137.23 23.0057 134.511 23.0057Z" fill="#00AEE8"/>
  <path d="M192.947 26.3861H188.477V5.90332H192.947V14.5062H195.38L201.95 5.90332H207.016L199.223 15.6472L208.272 26.3861H202.341L195.69 18.3304H192.947V26.3861Z" fill="#00AEE8"/>
  <path d="M159.059 22.4935H149.603L148 26.471H143.243L152.112 5.98828H156.868L165.593 26.471H160.662L159.059 22.4935ZM157.578 18.7822L154.359 10.8271L151.122 18.7822H157.578Z" fill="#00AEE8"/>
  <path d="M171.611 5.98828V14.5415H180.861V5.98828H185.47V26.471H180.861V18.4001H171.611V26.471H167.002V5.98828H171.611Z" fill="#00AEE8"/>
</svg>
