<svg width="36" height="35" viewBox="0 0 36 35" fill="none" xmlns="http://www.w3.org/2000/svg">
  <path d="M34.7798 29.6793L26.5134 21.3477C25.9206 20.75 25.1798 20.5107 24.8588 20.8163C24.5367 21.1197 23.7953 20.881 23.2026 20.2833L23.0843 20.1637C26.7841 15.4164 26.425 8.61929 21.9822 4.28481C17.1332 -0.445849 9.2713 -0.445849 4.42298 4.28481C-0.425946 9.01547 -0.425946 16.6846 4.42298 21.4152C8.94149 25.8241 16.0731 26.1194 20.9491 22.3115L21.001 22.3644C21.5926 22.9621 21.8131 23.6924 21.49 23.9963C21.1684 24.3004 21.3872 25.0312 21.9805 25.6278L30.2425 33.9626C30.8353 34.5588 31.812 34.5765 32.4253 33.9977L34.7439 31.8089C35.3549 31.2315 35.3714 30.2792 34.7798 29.6793ZM19.2537 18.7531C15.9168 22.009 10.4868 22.009 7.15048 18.7542C3.81365 15.4987 3.81416 10.2005 7.15048 6.94569C10.4868 3.69025 15.9168 3.69074 19.2525 6.94619C22.5899 10.2011 22.5899 15.4982 19.2537 18.7531Z" fill="#6AB16F"/>
</svg>
