<svg width="23" height="29" viewBox="0 0 23 29" fill="none" xmlns="http://www.w3.org/2000/svg">
  <path d="M15.8877 0.543945C19.6913 0.543945 22.7649 2.0457 22.807 5.86325V27.1685C22.807 27.4071 22.7509 27.6457 22.6386 27.8562C22.4562 28.1931 22.1474 28.4457 21.7684 28.558C21.4035 28.6703 20.9965 28.6141 20.6597 28.4176L11.5649 23.8703L2.45617 28.4176C2.24705 28.5285 2.00705 28.6001 1.76845 28.6001C0.982485 28.6001 0.350906 27.9545 0.350906 27.1685V5.86325C0.350906 2.0457 3.43863 0.543945 7.2281 0.543945H15.8877ZM16.8421 9.02114H6.27371C5.67021 9.02114 5.17898 9.51237 5.17898 10.1299C5.17898 10.7461 5.67021 11.2387 6.27371 11.2387H16.8421C17.4456 11.2387 17.9369 10.7461 17.9369 10.1299C17.9369 9.51237 17.4456 9.02114 16.8421 9.02114Z" fill="#00AEE8"/>
</svg>
