<svg width="30" height="45" viewBox="0 0 30 45" fill="none" xmlns="http://www.w3.org/2000/svg">
  <path d="M8.09208 39.8683C10.5734 39.8683 12.6771 39.1693 14.0789 38.0161V38.9473C14.0789 41.0473 11.5055 42.6315 8.09208 42.6315C4.67866 42.6315 2.10524 41.0473 2.10524 38.9473C2.10524 38.6406 2.10524 38.3265 2.10524 38.0161C3.50708 39.1693 5.61077 39.8683 8.09208 39.8683Z" fill="#00AEE8"/>
  <path d="M14.0789 29.7369C14.0789 31.8369 11.5055 33.4212 8.09208 33.4212C4.67866 33.4212 2.10524 31.8369 2.10524 29.7369C2.10524 27.6369 4.67866 26.0527 8.09208 26.0527C11.5055 26.0527 14.0789 27.6369 14.0789 29.7369Z" fill="#00AEE8"/>
  <path d="M8.09208 35.2634C10.5734 35.2634 12.6771 34.5643 14.0789 33.4111V34.3423C14.0789 36.4423 11.5055 38.0265 8.09208 38.0265C4.67866 38.0265 2.10524 36.4423 2.10524 34.3423C2.10524 34.0356 2.10524 33.7215 2.10524 33.4111C3.50708 34.5643 5.61077 35.2634 8.09208 35.2634Z" fill="#00AEE8"/>
  <path d="M21.9079 39.8683C24.3892 39.8683 26.4929 39.1693 27.8947 38.0161V38.9473C27.8947 41.0473 25.3213 42.6315 21.9079 42.6315C18.4945 42.6315 15.921 41.0473 15.921 38.9473C15.921 38.6406 15.921 38.3265 15.921 38.0161C17.3229 39.1693 19.4266 39.8683 21.9079 39.8683Z" fill="#00AEE8"/>
  <path d="M27.8947 29.7369C27.8947 31.8369 25.3213 33.4212 21.9079 33.4212C18.4945 33.4212 15.921 31.8369 15.921 29.7369C15.921 27.6369 18.4945 26.0527 21.9079 26.0527C25.3213 26.0527 27.8947 27.6369 27.8947 29.7369Z" fill="#00AEE8"/>
  <path d="M21.9079 35.2634C24.3892 35.2634 26.4929 34.5643 27.8947 33.4111V34.3423C27.8947 36.4423 25.3213 38.0265 21.9079 38.0265C18.4945 38.0265 15.921 36.4423 15.921 34.3423C15.921 34.0356 15.921 33.7215 15.921 33.4111C17.3229 34.5643 19.4266 35.2634 21.9079 35.2634Z" fill="#00AEE8"/>
  <g filter="url(#filter0_d)">
    <path d="M22.5309 12.3094L16.1311 18.7403C15.5072 19.3673 14.4928 19.3673 13.8688 18.7403L7.46906 12.3094C7.01148 11.8496 6.87388 11.1583 7.12188 10.557C7.36827 9.9573 7.95384 9.56501 8.60022 9.56501H11.8001V4.74182C11.8001 2.96528 13.232 1.52637 15 1.52637C16.7679 1.52637 18.1999 2.96528 18.1999 4.74182V9.56501H21.3997C22.0461 9.56501 22.6317 9.9573 22.8781 10.557C23.1261 11.1583 22.9885 11.8496 22.5309 12.3094Z" fill="#6AB16F"/>
  </g>
  <defs>
    <filter id="filter0_d" x="1.99998" y="0.526367" width="26" height="27.6842" filterUnits="userSpaceOnUse" color-interpolation-filters="sRGB">
      <feFlood flood-opacity="0" result="BackgroundImageFix"/>
      <feColorMatrix in="SourceAlpha" type="matrix" values="0 0 0 0 0 0 0 0 0 0 0 0 0 0 0 0 0 0 127 0"/>
      <feOffset dy="4"/>
      <feGaussianBlur stdDeviation="2.5"/>
      <feColorMatrix type="matrix" values="0 0 0 0 0.415686 0 0 0 0 0.694118 0 0 0 0 0.435294 0 0 0 0.54 0"/>
      <feBlend mode="normal" in2="BackgroundImageFix" result="effect1_dropShadow"/>
      <feBlend mode="normal" in="SourceGraphic" in2="effect1_dropShadow" result="shape"/>
    </filter>
  </defs>
</svg>
