<svg width="25" height="29" viewBox="0 0 25 29" fill="none" xmlns="http://www.w3.org/2000/svg">
  <path d="M13.2221 0.683685L22.5378 3.80923C23.5806 4.15743 24.2856 5.11533 24.2913 6.18883L24.3506 15.5091C24.369 18.3346 23.3389 21.0748 21.4526 23.2218C20.5851 24.2072 19.4731 25.0536 18.053 25.8106L13.0455 28.4874C12.8886 28.57 12.7163 28.6127 12.5425 28.6141C12.3687 28.6154 12.1949 28.5741 12.0394 28.4929L6.98527 25.878C5.5497 25.1334 4.4278 24.2994 3.55176 23.3277C1.63437 21.2028 0.568992 18.475 0.550624 15.6453L0.491245 6.33197C0.485627 5.25709 1.17798 4.29231 2.2151 3.93035L11.4955 0.693319C12.0465 0.497886 12.6612 0.493757 13.2221 0.683685ZM17.6769 10.6754C17.2601 10.2749 16.5889 10.2776 16.1777 10.6837L11.45 15.3438L9.5142 13.483C9.09737 13.0825 8.42763 13.0866 8.01504 13.4927C7.60387 13.8987 7.60811 14.551 8.02493 14.9515L10.7138 17.5389C10.9229 17.7399 11.1942 17.839 11.4655 17.8363C11.7368 17.8348 12.0067 17.733 12.213 17.5293L17.6854 12.1343C18.0966 11.7283 18.0923 11.0759 17.6769 10.6754Z" fill="#6AB16F"/>
</svg>
