<svg width="24" height="24" viewBox="0 0 24 24" fill="none" xmlns="http://www.w3.org/2000/svg">
  <path d="M0 12C0 5.37257 5.37257 0 12 0C18.6274 0 24 5.37257 24 12C24 18.6274 18.6274 24 12 24C5.37257 24 0 18.6274 0 12Z" fill="white"/>
  <path fill-rule="evenodd" clip-rule="evenodd" d="M11.7572 0C11.7005 4.93689 11.3776 7.6998 9.53871 9.53871C7.6998 11.3776 4.93689 11.7005 0 11.7572V12.4736C4.93689 12.5303 7.6998 12.8531 9.53871 14.692C11.3488 16.5021 11.69 19.2074 11.7543 24H12.4765C12.5408 19.2074 12.882 16.5021 14.692 14.692C16.5021 12.882 19.2074 12.5408 24 12.4765V11.7543C19.2074 11.69 16.5021 11.3488 14.692 9.53871C12.8531 7.6998 12.5303 4.93689 12.4736 0H11.7572Z" fill="#00AEE8"/>
</svg>
